Coordinates
version=1
nRows=29
nColumns=24
inDegrees=yes

Units are S.I. units (second, meters, Newtons, ...)
Angles are in degrees.

endheader
time	pelvis_tilt	pelvis_list	pelvis_rotation	pelvis_tx	pelvis_ty	pelvis_tz	hip_flexion_r	hip_adduction_r	hip_rotation_r	knee_angle_r	ankle_angle_r	subtalar_angle_r	mtp_angle_r	hip_flexion_l	hip_adduction_l	hip_rotation_l	knee_angle_l	ankle_angle_l	subtalar_angle_l	mtp_angle_l	lumbar_extension	lumbar_bending	lumbar_rotation
      0.69116667	      1.47275406	     -4.98063296	      1.69474275	     -0.46333488	      1.00226353	      0.29972381	      8.29227452	     10.25158628	     -1.36310866	    -16.40116431	      5.82282540	    -13.60820895	     -1.81901308	     19.74602304	     -4.95163109	     -0.04485823	    -70.49179074	     -5.50293442	     -8.01431333	      3.06325410	     -3.19586230	      9.03752361	      2.32390418
      0.69533333	      1.52030000	     -4.87470725	      1.67072022	     -0.45805557	      1.00316196	      0.29990579	      7.67352847	     10.15469008	     -1.34564270	    -15.97830004	      5.86718571	    -13.43548325	     -1.85702522	     20.25655734	     -4.76289335	      0.03444144	    -70.11447414	     -5.03938541	     -8.35326165	      2.93067268	     -3.28744574	      8.91295344	      2.42608955
      0.69950000	      1.51774372	     -4.77168844	      1.62577445	     -0.45279439	      1.00395399	      0.30010267	      7.12172175	     10.06239186	     -1.29566027	    -15.58228592	      5.92992408	    -13.33012628	     -1.87107807	     20.79981931	     -4.57999364	      0.09769833	    -69.67411676	     -4.51703503	     -8.66205951	      2.88624654	     -3.31683464	      8.80306941	      2.48790711
      0.70366667	      1.61768424	     -4.65022724	      1.58869610	     -0.44748904	      1.00490174	      0.30029934	      6.43008746	      9.95191556	     -1.24684096	    -15.12710658	      5.95131042	    -13.14496511	     -1.91323630	     21.18926749	     -4.38834904	      0.14101076	    -69.12625460	     -4.07946954	     -9.00911600	      2.76174459	     -3.47750140	      8.64423140	      2.63960570
      0.70783333	      1.65427877	     -4.53538794	      1.52991836	     -0.44220317	      1.00569022	      0.30051226	      5.82786406	      9.84671906	     -1.18339192	    -14.71543226	      5.99921150	    -12.99572275	     -1.95870273	     21.62959871	     -4.20955793	      0.16417691	    -68.52784220	     -3.58392389	     -9.33406267	      2.63551749	     -3.56173877	      8.50518950	      2.77266877
      0.71200000	      1.65241943	     -4.41884215	      1.45130504	     -0.43693698	      1.00637427	      0.30074267	      5.28540160	      9.73974665	     -1.09903339	    -14.34164078	      6.05317776	    -12.88473655	     -1.98388024	     22.08862084	     -4.03617656	      0.16499171	    -67.86962978	     -3.04289616	     -9.65221276	      2.56830795	     -3.60190780	      8.36587828	      2.86206629
      0.71616667	      1.68592099	     -4.29956241	      1.37431198	     -0.43163871	      1.00708768	      0.30096356	      4.68953097	      9.62903000	     -1.01200220	    -13.93602085	      6.09736437	    -12.75343356	     -2.01549755	     22.47499707	     -3.86501397	      0.15548735	    -67.12738599	     -2.54289203	     -9.97551503	      2.48419986	     -3.66870081	      8.22951728	      2.99861779
      0.72033333	      1.71473391	     -4.18856541	      1.29098880	     -0.42635694	      1.00773884	      0.30118783	      4.10365100	      9.52628743	     -0.90820838	    -13.53630219	      6.14789368	    -12.63152394	     -2.05153858	     22.84616341	     -3.70916901	      0.13821755	    -66.32841730	     -2.03849498	    -10.28303655	      2.38747563	     -3.74628563	      8.09479104	      3.15119818
      0.72450000	      1.75768099	     -4.07308997	      1.21627695	     -0.42106632	      1.00837341	      0.30140262	      3.49410893	      9.41872066	     -0.80228218	    -13.11821746	      6.20584814	    -12.50640887	     -2.11047121	     23.17704879	     -3.54896645	      0.12048498	    -65.45915775	     -1.58215097	    -10.58011396	      2.22669301	     -3.84169805	      7.94528565	      3.35790607
      0.72866667	      1.73072122	     -3.96498272	      1.10135719	     -0.41579982	      1.00883997	      0.30164377	      2.99480069	      9.31536119	     -0.67553200	    -12.77126718	      6.25951574	    -12.41195688	     -2.14637778	     23.55919530	     -3.40928829	      0.06680459	    -64.54175562	     -1.05239438	    -10.86630884	      2.12730348	     -3.84727327	      7.82740795	      3.47148619
      0.73283333	      1.77312769	     -3.85182134	      1.01856672	     -0.41050302	      1.00938312	      0.30185402	      2.38786522	      9.20742160	     -0.55115999	    -12.35410180	      6.31994798	    -12.31479635	     -2.21685507	     23.83810574	     -3.25990070	      0.03235705	    -63.54637243	     -0.61943426	    -11.15696356	      1.92485514	     -3.94164742	      7.68459946	      3.69722048
      0.73700000	      1.75159402	     -3.74811567	      0.89934263	     -0.40524667	      1.00975983	      0.30209373	      1.88269589	      9.11055181	     -0.38381138	    -12.00783077	      6.43141718	    -12.30227509	     -3.28602687	     24.16885141	     -3.13128109	     -0.03380142	    -62.51729515	     -0.09458339	    -11.39837912	     -1.11456418	     -3.95846084	      7.56072093	      3.91642240
      0.74116667	      1.73053921	     -3.65260895	      0.78348438	     -0.39996756	      1.01007983	      0.30231546	      1.37571634	      9.01427628	     -0.25307921	    -11.64789503	      6.45208364	    -12.18260285	     -3.29871948	     24.47273417	     -3.01711715	     -0.10253959	    -61.42341908	      0.37161479	    -11.63975616	     -1.12571410	     -3.96994616	      7.45063063	      3.99623759
      0.74533333	      1.71879499	     -3.56203831	      0.67511185	     -0.39469200	      1.01036240	      0.30253127	      0.85915843	      8.92401914	     -0.11859468	    -11.28829023	      6.51654053	    -12.10373799	     -3.31339709	     24.74443037	     -2.90684774	     -0.16492013	    -60.27165287	      0.78001402	    -11.89346063	     -1.15199698	     -3.99489930	      7.34591795	      4.14107096
      0.74950000	      1.71416364	     -3.47203491	      0.56512216	     -0.38940715	      1.01062902	      0.30274044	      0.33097254	      8.83340284	      0.02499061	    -10.91936353	      6.57655729	    -12.05228910	     -3.33318593	     24.98025748	     -2.80192346	     -0.23762729	    -59.05567155	      1.14297326	    -12.14043630	     -1.19629883	     -4.02733989	      7.23660258	      4.31486406
      0.75366667	      1.72101520	     -3.40285217	      0.47353968	     -0.38411343	      1.01083367	      0.30292862	     -0.21649399	      8.76517771	      0.15399759	    -10.53284620	      6.65048602	    -12.03530091	     -3.36496929	     25.18981762	     -2.71792742	     -0.29702956	    -57.79980393	      1.46173430	    -12.36550301	     -1.27693879	     -4.06398400	      7.14676726	      4.51938415
      0.75783333	      1.69752655	     -3.32129337	      0.36850383	     -0.37883077	      1.01096641	      0.30311258	     -0.71909249	      8.68206377	      0.30699693	    -10.17141393	      6.72093919	    -12.02862607	     -3.40617353	     25.40109192	     -2.61825499	     -0.36207225	    -56.47914611	      1.75449428	    -12.58259984	     -1.38760785	     -4.07996292	      7.05477941	      4.70220176
      0.76200000	      1.66646467	     -3.24716101	      0.25362261	     -0.37353929	      1.01101378	      0.30331313	     -1.20393115	      8.60345387	      0.43862107	     -9.82914478	      6.79988775	    -12.01315533	     -3.44203652	     25.60096624	     -2.54344250	     -0.45985010	    -55.11892291	      2.03110313	    -12.76572410	     -1.48885129	     -4.07437145	      6.96013833	      4.83658401
      0.76616667	      1.65373488	     -3.20062817	      0.16586729	     -0.36826291	      1.01104821	      0.30346507	     -1.71973443	      8.55751562	      0.58922651	     -9.45958044	      6.87631881	    -12.04470469	     -3.50309649	     25.76234821	     -2.47725716	     -0.50448438	    -53.70904658	      2.25959544	    -12.93218915	     -1.65476601	     -4.10083394	      6.91137656	      5.01753919
      0.77033333	      1.59028208	     -3.13301612	      0.04724336	     -0.36297466	      1.01096059	      0.30365555	     -2.15097922	      8.48266690	      0.71241400	     -9.15454111	      6.97072827	    -12.03410098	     -3.53663820	     25.94845540	     -2.41071467	     -0.60508175	    -52.24636877	      2.47045502	    -13.05206943	     -1.74905219	     -4.05269731	      6.82376583	      5.10426039
      0.77450000	      1.56246118	     -3.11549210	     -0.04563209	     -0.35768194	      1.01087775	      0.30385078	     -2.68011348	      8.47867235	      0.96018290	     -8.72603804	      7.00897844	    -12.32184357	     -3.90865177	     26.08811988	     -2.39928660	     -0.68871700	    -50.76081954	      2.65156964	    -13.08768765	     -2.66052223	     -4.06290705	      6.80192364	      5.39288687
      0.77866667	      1.51652203	     -3.04940237	     -0.14207707	     -0.35238989	      1.01072435	      0.30397764	     -3.11887171	      8.39937644	      1.02028946	     -8.44251257	      7.15616267	    -12.23066729	     -3.93750596	     26.20661301	     -2.31956057	     -0.76907164	    -49.19815080	      2.79217994	    -13.18859784	     -2.72826983	     -4.04913501	      6.72358725	      5.38673359
      0.78283333	      1.51990159	     -3.00373283	     -0.20424985	     -0.34705882	      1.01058784	      0.30407049	     -3.64142589	      8.34430617	      1.05340815	     -8.09467635	      7.28190968	    -12.18237672	     -3.99246638	     26.25432106	     -2.25893516	     -0.84290729	    -47.59783799	      2.86130059	    -13.27371229	     -2.84317357	     -4.06956642	      6.66548681	      5.48833709
      0.78700000	      1.47382544	     -2.95483023	     -0.29930891	     -0.34175686	      1.01034960	      0.30419950	     -4.08512711	      8.28515419	      1.12252977	     -7.79833173	      7.40510731	    -12.16816987	     -4.03437560	     26.32796594	     -2.21020597	     -0.95201262	    -45.95548088	      2.94194711	    -13.24757950	     -2.92543690	     -4.06225988	      6.61329774	      5.55933932
      0.79116667	      1.43709811	     -2.91451427	     -0.36422274	     -0.33642922	      1.01006801	      0.30428472	     -4.55308808	      8.23711095	      1.16542504	     -7.47338079	      7.53900382	    -12.16599855	     -4.08722930	     26.37261145	     -2.15799924	     -1.03904901	    -44.27753325	      2.98186118	    -13.21148208	     -3.02051660	     -4.05062369	      6.57077631	      5.65062701
      0.79533333	      1.41540678	     -2.88995277	     -0.43312171	     -0.33111317	      1.00975872	      0.30437583	     -5.02676747	      8.20520240	      1.20113618	     -7.16972893	      7.67274334	    -12.16479408	     -4.14754832	     26.38044813	     -2.12738087	     -1.13650307	    -42.56942181	      3.00838670	    -13.11743133	     -3.11772570	     -4.05983195	      6.54088456	      5.73125899
      0.79950000	      1.37723896	     -2.86069535	     -0.49519949	     -0.32577229	      1.00938153	      0.30445897	     -5.47893750	      8.16870184	      1.21497452	     -6.87657635	      7.81523291	    -12.15158965	     -4.20272636	     26.38170441	     -2.09225320	     -1.24391829	    -40.82670614	      3.01895610	    -12.96095566	     -3.19783449	     -4.04051831	      6.49556787	      5.79051981
      0.80366667	      1.37422799	     -2.85315564	     -0.54218082	     -0.32044027	      1.00899858	      0.30450817	     -5.97184559	      8.15542447	      1.22205522	     -6.57553860	      7.95662729	    -12.11701478	     -4.28785912	     26.32598849	     -2.06875374	     -1.32692962	    -39.05880005	      3.01620375	    -12.77690791	     -3.30266861	     -4.07292887	      6.48336326	      5.86780102
      0.80783333	      1.33977912	     -2.83425191	     -0.60008805	     -0.31508738	      1.00854507	      0.30455875	     -6.41409524	      8.12593626	      1.20130014	     -6.31118218	      8.10953011	    -12.06879388	     -4.36789395	     26.27735925	     -2.04300477	     -1.44939088	    -37.26035802	      2.99825261	    -12.51680934	     -3.38606666	     -4.06109598	      6.45443711	      5.91435929
